<svg xmlns="http://www.w3.org/2000/svg" xmlns:xlink="http://www.w3.org/1999/xlink" width="185" height="92" viewBox="0 0 185 92"><g color="#151411" transform="translate(12,26) scale(1.0)"><path d="M7 8h26v8H7zM7 19h18v5H7zM7 27h26v5H7z" fill="#151411"/><path d="m27 19 6 2.5-6 2.5z" fill="#151411"/></g><path d="M230 173H151L133 0H3L84 666H296L378 0H248ZM219 281 190 545 162 281Z" transform="translate(75.8620,61.8010) scale(0.04600000,-0.04600000)" fill="#151411"/><path d="M225 485Q233 485 239.5 484.0Q246 483 251 481Q256 479 261 477V371Q257 373 251 374Q242 377 223 377Q214 377 201.5 373.5Q189 370 178.5 361.5Q168 353 160.5 339.0Q153 325 153 304V0H23V479H129L145 427Q155 443 167 456Q178 467 192.5 476.0Q207 485 225 485Z" transform="translate(92.4680,61.8010) scale(0.04600000,-0.04600000)" fill="#151411"/><path d="M341 295H211V364Q211 378 201.5 387.5Q192 397 178 397Q165 397 155.5 387.5Q146 378 146 364V117Q146 103 155.5 93.5Q165 84 178 84Q192 84 201.5 93.5Q211 103 211 117V192H341V137Q341 109 331.5 83.5Q322 58 302.0 38.5Q282 19 251.0 7.5Q220 -4 178 -4Q137 -4 106.5 8.0Q76 20 56.0 39.5Q36 59 26.0 85.0Q16 111 16 139V351Q16 377 25.5 401.0Q35 425 54.5 443.5Q74 462 105.0 473.0Q136 484 178 484Q217 484 247.5 472.5Q278 461 298.5 441.5Q319 422 330.0 397.5Q341 373 341 346Z" transform="translate(103.4620,61.8010) scale(0.04600000,-0.04600000)" fill="#151411"/><path d="M239 485Q300 485 327.5 450.0Q355 415 355 356V0H225V334Q225 372 217.0 384.5Q209 397 194 397Q185 397 178.0 390.5Q171 384 166.0 374.5Q161 365 158.0 354.5Q155 344 153 336V0H23V691H153V454Q159 460 180.0 472.5Q201 485 239 485Z" transform="translate(118.8260,61.8010) scale(0.04600000,-0.04600000)" fill="#151411"/><path d="M23 0V479H152V0ZM88 504Q55 504 32.0 527.5Q9 551 9 584Q9 618 32.0 641.5Q55 665 88 665Q120 665 143.0 641.5Q166 618 166 584Q166 551 143.0 527.5Q120 504 88 504Z" transform="translate(135.2020,61.8010) scale(0.04600000,-0.04600000)" fill="#151411"/><path d="M353 479 266 0H89L0 479H137L177 110L216 479Z" transform="translate(142.3780,61.8010) scale(0.04600000,-0.04600000)" fill="#151411"/><path d="M146 230V117Q146 103 155.5 93.5Q165 84 178 84Q192 84 201.5 93.5Q211 103 211 117V180H341V137Q341 109 331.5 83.5Q322 58 302.0 38.5Q282 19 251.0 7.5Q220 -4 178 -4Q137 -4 106.5 8.0Q76 20 56.0 39.5Q36 59 26.0 85.0Q16 111 16 139V351Q16 377 25.5 401.0Q35 425 54.5 443.5Q74 462 105.0 473.0Q136 484 178 484Q217 484 247.5 472.5Q278 461 298.5 441.5Q319 422 330.0 397.5Q341 373 341 346V230ZM146 319H211V364Q211 378 201.5 387.5Q192 397 178 397Q165 397 155.5 387.5Q146 378 146 364Z" transform="translate(157.7420,61.8010) scale(0.04600000,-0.04600000)" fill="#151411"/></svg>