<svg xmlns="http://www.w3.org/2000/svg" xmlns:xlink="http://www.w3.org/1999/xlink" width="186" height="92" viewBox="0 0 186 92"><g color="#352753" transform="translate(12,26) scale(1.0)"><ellipse cx="20" cy="20" rx="16" ry="8" transform="rotate(-35 20 20)" fill="none" stroke="#352753" stroke-width="3"/><circle cx="20" cy="20" r="5" fill="#352753"/><circle cx="32" cy="11" r="4" fill="#352753"/></g><path d="M328 -12Q252 -12 190.0 24.5Q128 61 91.5 124.5Q55 188 55 269Q55 349 91.0 412.0Q127 475 188.5 511.5Q250 548 328 548Q406 548 467.5 512.0Q529 476 564.5 413.0Q600 350 600 269Q600 187 563.0 123.5Q526 60 464.5 24.0Q403 -12 328 -12ZM328 63Q382 63 425.5 90.0Q469 117 494.5 164.0Q520 211 520 269Q520 327 494.5 373.0Q469 419 425.5 446.0Q382 473 328 473Q274 473 230.5 446.0Q187 419 161.0 373.0Q135 327 135 269Q135 211 161.0 164.0Q187 117 230.5 90.0Q274 63 328 63Z" transform="translate(73.4700,63.1350) scale(0.04600000,-0.04600000)" fill="#352753"/><path d="M77 0V536H152V448L142 461Q161 499 199.5 521.0Q238 543 293 543H327V468H280Q222 468 187.0 432.0Q152 396 152 330V0Z" transform="translate(102.6800,63.1350) scale(0.04600000,-0.04600000)" fill="#352753"/><path d="M348 -12Q279 -12 223.5 19.5Q168 51 140 109L152 120V0H77V757H152V416L140 437Q172 488 225.5 518.0Q279 548 348 548Q424 548 483.5 511.5Q543 475 577.5 412.0Q612 349 612 268Q612 188 577.5 124.5Q543 61 483.5 24.5Q424 -12 348 -12ZM344 63Q398 63 440.5 90.0Q483 117 507.5 163.5Q532 210 532 268Q532 327 507.5 373.0Q483 419 440.5 446.0Q398 473 344 473Q290 473 246.5 446.0Q203 419 177.5 372.5Q152 326 152 268Q152 210 177.5 163.5Q203 117 246.5 90.0Q290 63 344 63Z" transform="translate(117.3080,63.1350) scale(0.04600000,-0.04600000)" fill="#352753"/><path d="M77 0V536H152V0ZM77 635V745H152V635Z" transform="translate(147.0700,63.1350) scale(0.04600000,-0.04600000)" fill="#352753"/><path d="M282 -6Q210 -6 171.0 36.0Q132 78 132 156V461H33V536H58Q92 536 112.0 558.5Q132 581 132 615V660H207V536H325V461H207V156Q207 129 215.0 108.5Q223 88 242.5 76.0Q262 64 295 64Q303 64 314.0 65.0Q325 66 333 67V0Q321 -3 306.0 -4.5Q291 -6 282 -6Z" transform="translate(156.6840,63.1350) scale(0.04600000,-0.04600000)" fill="#352753"/></svg>